# xmcd CD database file
#
# Track frame offsets:
#	150
#	25710
#	50786
#	85909
#	108491
#	132878
#	156528
#	172864
#	191208
#
# Disc length: 2863 seconds
#
# Revision: 1
# Processed by: cddbd v1.5.1PL0 Copyright (c) Steve Scherf et al.
# Submitted via: CDex 1.51
#
DISCID=770b2d09
DTITLE=Nicky Nicolai - Tutto passa
DYEAR=1900
DGENRE=Jazz
TTITLE0=Nicky Nicolai - Cosa Eri Per Me
TTITLE1=Nicky Nicolai - E' La Vita
TTITLE2=Nicky Nicolai - In Te
TTITLE3=Nicky Nicolai - Io Qui Tu Lì
TTITLE4=Nicky Nicolai - Late For Love
TTITLE5=Nicky Nicolai - Ninna Nanna Delle 7,30
TTITLE6=Nicky Nicolai - Sola
TTITLE7=Nicky Nicolai - Tutto passa
TTITLE8=Nicky Nicolai - Un Cornetto E Un Cachet
EXTD=
EXTT0=
EXTT1=
EXTT2=
EXTT3=
EXTT4=
EXTT5=
EXTT6=
EXTT7=
EXTT8=
PLAYORDER=
